<mxfile host="app.diagrams.net" modified="2023-10-31T22:18:29.749Z" agent="Mozilla/5.0 (Windows NT 10.0; Win64; x64; rv:109.0) Gecko/20100101 Firefox/119.0" version="22.0.8" etag="CtJVp4eaVuTIJO8AWaY2" type="github">
  <diagram name="PÃ¡gina-1" id="FTqy1bzZJ99u68QTNEba">
    <mxGraphModel>
      <root>
        <mxCell id="0" />
        <mxCell id="1" parent="0" />
      </root>
    </mxGraphModel>
  </diagram>
</mxfile>
